<?xml version="1.0" encoding="UTF-8"?>
<!DOCTYPE svg PUBLIC '-//W3C//DTD SVG 1.1//EN' 'http://www.w3.org/Graphics/SVG/1.1/DTD/svg11.dtd'>
<svg id="svg9559" width="555.22" height="351.67" xmlns="http://www.w3.org/2000/svg">
 <g id="stylegroup" fill="#d0d0d0" stroke="#000" stroke-width=".1">
  <path id="FIPS_02185" d="m62.678 259.31.882-.881.66-.44.219.44-.439.22h.439l2.204-.66 1.983-2.425 1.762.882v.442l-.661.659v.663l.661-.221.441-1.101.44-.442.661.66.22.883.661.221.219-.441 1.101-.222h1.763l.219.222-.44.66v.22l1.323.221-.222.66h.882l1.101-.66 2.423-.221 1.542.441h.664l.658.22.223.22h.881l1.101-.22h1.323l1.542.442.44-.222.882-.66.219-.221.441-.439 1.543.219 3.524 1.101 1.101 3.526.661 2.203-9.032 2.203.441 2.422-1.762.441-4.627.884h-.223l-10.351 1.1h-2.424v-.441h-1.761v-.441h-1.763l-1.762.22h-1.323v-.438h-.66v.218h-1.982l-.441-.218h-.221v.218h-.88l-.222-.44h-1.101v.44h-.442l-3.085-.218v.878h-1.542l-1.321-.66-.661-.882.44-1.32.221-1.544 1.542.222 1.984-.222.659-.219 1.322-1.543.663-1.982 1.321-1.982.882-.883.66.223.882-.442z">
   <title id="t0">North Slope, AK</title>
  </path>
  <path id="FIPS_02188" d="m74.35 278.7h-.439l-.881.44.221.441h-1.321v1.321l-.882.221v-.44l-.44-.439h-.881v.879h-.882v-.879h-1.761v1.982h-2.203v.88h-1.321v2.203h-.441v.442h-.441l-7.711-.221v-.882h-.222l-.219-.22v-.66l-.441-.221v-1.762l-.222-2.204h.882l.441.22-.441 1.542.222.883 3.965.438 1.102-1.1h.662l-.222-.441-.66-.44-.66-.439-.885-1.104-.438-.219-.22-.661.22-.221h.438l.663 1.542.882.881.441-.218-.441-.221-.66-.883.44-1.321.22.22v-.22l-.66-.44-1.102.219h-.883l-1.543-.66-.659-2.423-2.205-2.425h1.542v-.878l3.085.218h.442v-.44h1.101l.222.44h.88v-.218h.221l.441.218h1.982v-.218h.66v.438h1.323l1.762-.22h1.763v.441h1.761v.441h1.763v1.101h.44v.441l.88.882v1.32h.881l.439.441.222 1.322-.222.881">
   <title id="t1">Northwest Arctic, AK</title>
  </path>
  <path id="FIPS_02130" d="m140.67 317.91.88-1.1 1.764 1.541.44 1.321-.221.662-.881.22-1.542-.441v-.441l.221-.44zm.661 2.203.66.441.221.882-.662-.662z">
   <title id="t2">Ketchikan Gateway, AK</title>
  </path>
  <path id="FIPS_02201" d="m139.56 319.24.661.221v-.882l-.22-.22v-.882l.22-.44.661-.44.66-.883.221-.439-.661-.44.881-.221 1.323.661h.66l.218-.44.664.44v1.322l1.539 1.982v1.763l-.44 1.542-.661.22-.438-.22-1.102-1.542.22-.881-.881-1.543-1.543-1.1-.88 1.1-.441.22.441.221v1.543h-.661l-.662-.662zm-4.846-1.322 1.099-.441 3.086 1.763 1.322 1.542.881.44 1.102 1.983v.662l-.662.219-1.321-1.101-1.983-.66 1.101 1.542.442-.441.44.221.441 1.101h-.661l-2.644-1.763-.22-.44.881-.882-.661-.66h-.66l-1.102-.441.218-.22h.441l.222-.221-.663-.881-.218.662-.441.219-.22-.219.22-.662-.44-1.102zm.22 2.203v.441l-.22-.22zm7.49 1.323-.22-.882.881.22.221.662-.662.44zm-6.391.219.883-.441.441.222-.441 1.101-.883-.22zm7.713-.219.22.219v.441h-.66z">
   <title id="t3">Prince of Wales-Outer Ketchikan, AK</title>
  </path>
  <path id="FIPS_02280" d="m140 318.35.22.22v.882l-.661-.221.221-.661-.442-1.761-.219.879.219.441-.219.441-1.102-.22-.661-.441v-.441l.441-.88-.441-1.543-1.324-.44-.661-.442-.218-.44-1.103.221h-.659l.218-.441h.661l.221-.882.442-.66.879-.22.663.661v.661l.881-.221.22.881.661.221.661.661.44-.22 1.763.441.661.44-.221.439-.66.883-.661.44-.22.44zm-7.05-2.864-.662-.441.22-.44h1.542l.663-.442 2.423 1.323-.661.882h-.663v-.442l-1.099-.66v.439l.881.441.218.442-.218.44h-.661v.221l-.442.219-.66-1.322-.222-.22-.439-.221zm.22 2.202-1.101-.66-.441-.66.219-.663.441-.219.662.44h.659l.441.883-.441.219v.44l.222.661h.439v1.323l-.439-.442.219 1.102-.441-.219-.439-1.101v-.663h.439zm3.083-.879.662-.441.441.881-.441.219h-.662zm-3.965 2.862-.219-.44h.219v.662zm1.543.882h.439l-.22.441-.441-.221z">
   <title id="t4">Wrangell-Petersburg, AK</title>
  </path>
 </g>
 <g id="g6288" fill="none">
  <path id="State_Lines" d="m122.35 106.93-2.244-.442-2.028-.401-2.47-.559-1.411-.284-1.167-.184-13.742-2.917-1.082-.248-3.642-.834-.072-.027-10.898-2.478-5.395-1.24-5.061-1.276-.33-.085-5.908-1.505m167.24 52.736-.338 5.568-.004.075-.334 5.648-.063 1.119-.275 4.534-.072 1.067-.279 4.494-.005.081-.406 6.801-.072 1.221-.216 3.308-.329 5.139-3.195-.225-5.301-.437-1.294-.1-.856-.063-9.397-.699-7.382-.617-2.732-.251-1.573-.177-.667-.064-5.066-.513-2.93-.302-4.777-.491-1.433-.154-2.57-.283-1.315-.253-4.269-.505-.617-.076-9.109-1.14-6.747-.902-9.677-1.375-3.34-.505-1.649-.325-2.583-.391-6.693-1.05-11.362-1.915-3.615-.641-11.574-2.154m68.553 78.739-.847-.906-.104-.14-.018-.059.252-1.113.027-.094.235-.554v-.005h.004l.036.005 2.371.251 4.11.433 11.714 1.195.767.072 8.946.802.482.041 2.794.229 4.314.338.64.051.563.039.767.059.612.049.267.019.085-1.118.415-5.612.419-5.637.496-5.535.221-2.353.297-3.276.496-6.175.009-.135.433-5.621.198-2.673.225-2.965.428-5.687.117-1.511.307-4.093.244-3.407.157-2.078.424-.252.477-6.477m67.337-68.692.324.023.126.049.1.139.04.149.004.199-.067.179.112 1.484.289.541-.118.798.789 2.181 1.267 2.353.171 2.38 1.344 2.28.419 1.478.144 2.623.676.406-.131 1.469.429 1.884-.303 1.532.87 2.579.545.793.127-.275.365.324-.212.379-.112.104.054.229.635 1.596.681.663.026.067-.003.023v.018l-.01.234v.036l2.411 3.39.005.121.063.091 1.19 1.077.482.31.243.09.189.072.036.013.045-.004.375-.036.073-.027.058-.054.008-.009.338-.383.825 1.037.081.383.077.356-.207.461-.208.036-.712.63-.04.046-.339.495-.117.167-.391 1.176 1.338 1.472 1.776 2.814 1.907.509-.046.605.014.901.032 2.56.004 1.415.014 3.39.013 1.154.054 4.271.005.303.031 4.728.004.253.059 3.762.004.338.049 3.66.01.762.041 3.006.022 1.285.031 2.189.636 4.377.122.772.681 4.443.239 1.564.472 3.115-.004.226-.063 5.8-.027 2.663-.022 2.872-.032 4.119-.023 3.231-.026 3.927m19.285-170.04-.046.032-.125-.054-.513-.501-.24.018-.63.429-.05.103-.009.095.031.081.045.059.009.009.009.144-.121.316-.041.04-.044.027-.267.018-.248-.022-.202-.14.117 3.159.121 3.345.023.559.018.505-1.312.819-1.878 1.236-.448.392-.113.149-.112.202-.905 1.812-.367 1.122-.012.204.004.085.023.342.031.253.122.094.433.073.18-.028.713.384.445.842.18.911-.342.874-.24.297-.012.01-.109.099-.139 1.122-.19 1.699.028.424.224.478.196.906-.07.973-.319 1.524.654.378.95.807.099.126.023.126.667.663.145.067.392.046 1.239.049.158.036.104.05.089.077.032.049.731 1.091 1.478.563 2.154 2.668 2.907 2.055 1.312.451 1.347 1.713.226 1.559.617 2.889.162.996-.009.663 1.001.704.217.275.283.455-.036.161-.72 1.213-.245.951.2 1.226.211.986.861 1.912.117.243.761.505.262.121.496.118 1.221.234.473.113.108.053.068.068.6 1.091.103.325.006.073-.036.062 2.027-.1 4.728-.275.843-.049 4.123-.213.338-.021 4.026-.221 1.55-.103.654-.045 3.803-.316.983-.099 3.778-.261m-26.853 1.703-.132.226-.004.03.009.072.022.065.077.08.22.158.637.329.81.564.004.004.024.023.567.657.027.042.005.049-.054.365-.054.121v.082l.132.297.007.014.271.338.009.008.163.131.175.113.397.127 1.667 1.986.104 1.349-.744 1.928-.676.758-.149 1.405-.5.672-.572.667-1.821.902-.776.198-.329.009-.139-.018-.59.005-1.352.369-.362.131-.103.067-.009.005v.004l-.068.096-.009.025-.134.551-.114.444-.275 1.103.014.116.653.785.308.153.129-.018.078.036.082.085.454.744-.009.311.009.032.036.112.049.348-.039 1.05-.082.383-.054.081-.279.158-.104.102-.753 1.074-.036.167-.067 1.46-.677.794-.315.008-.257.019-.081.004-.524.188-.058.033-.244.139-.086.054-.03.033-.036.035-.036.041-.41.63-.015.096.032.108.199.094.162.235.054.157.008.13-.03 1.168-.023.113-.117.094-.298.105-.72 1.717-.06.631.69 3.286.983 2.383.585.929 1.39 1.058 2.375 2.466 2.419 2.15.464 1.582-.008.162-.271.419-.01.041.025.09v.005l.536 1.437 2.113-.558 1.775.432.257.078.252.121.19.112.978.591.041.072.009.076-.036.298-.022.122-.726.886.206 1.038-.661 1.712-.045.159-.695 1.807-.028.036-.045.09-.147.5-.019.054-.009.131.019.541.135.58.117.289.185.253.032.045.026.028.848.825.512.383 2.854 2.605 2.723.756 1.748 2.894v.077m.766 13.863.555-.03.101-.19.016-.032.013-.049.032-.127.009-.035v-.055l-.004-.022-.032-.145-.063-.149-.006-.013-.066-.103-.014-.009-.022-.018-.027-.018-.158-.045-.288-.045-.189.026-.064.04-.118.158-.017.023-.013.049-.014.059-.01.045.01.041.01.054.004.009.112.239.243.342.082 2.096-.736 2.019-.91 2.466.551 1.217-.285-.005-.188.032-.225.117-.034.023-.066.058-.91 1.943-.285 2.731-2.447 1.47.699.688.04.136.419 2.957-.004.014v.012l-.004.008-.019.029-.157.193-1.105.849-1.05.346-.126.402.018.18.265 1.74-1.176.431-1.622 2.583.144 1.501.113 1.158-.076.248-.01.023-.023.018-.365.32-.459.22-.555.114-.553.108-1.01 1.812-.479.987-.153.319.039.136.48.392.113.28-.063.433-2.083 1.049-.856 3.687-.059.293.014.026.064.114.319.239.302.244v.013l-.028.139-.189.162-.788.317.148.409.014.008.546.372.446.301.085.301-.13.257-.555.162.541 1.547.365.662.28.297.031.991-.347 1.412-.315.356-.087.099-.355.573-.113.41.018.104.865 3.92.064.154.012.022.034.04.012.024.023.018.103.09.027.023.343.107.077.176-.245.825.019.207v.014l.031.045.046.072.009.023 1.203 1.28.076 1.861-1.257.156 1.1 1.285-2.24 3.269-1.248 1.65-.108.194-.173.296-.008.01-1.176 2.362-.027.053-.041.087-.004.009-.41 3.361-.266 1.389-.267 2.015 5.079-.239 1.281-.063 2.583-.145 2.858-.167.211-.007 2.209-.141.969-.059 4.669-.31 1.185-.081.023.4-.136.681-.111.248-.069.009-.09.013-.026.028-.145.603-.167.824-.134.68-.123.921 1.852 2.551.019.017.072.073.69 1.402.017.239-.103.261-.028.108.009.069.353.67.108.208.242.283.082.095.028.018.04.027.027.019.021-.005.515-.031m-2.001-88.151-.481-1.081 2.279-2.217.055-.018 3.872 1.646.743.079.076-.013.235-.104.121-.334.149-.716-.288-.64-.126-.121-.136-.077-.428-.514-.087-.279.006-.086.289-1.275.053-.127.131-.17.091-.064.072-.055.175-.08.063-.027.591.193.256-.341.172-.159.009-.004.049-.032.244-.148.022-.004.064-.019.175-.049.212-.045 1.407-.298.103-.023.193-.22v-.208l-.805-.834-.082-.148-.216-.586-.006-.014-.053-.292-.005-.014.014-.09.054-.144.013-.028.082-.139.163-.307.008-.005.469-.341.122-.132.076-.139.049-.131.131-.491.901-1.419 2.286-.181 2.465-.744 1.546.415.361.252 1.473.982.753-1.36.627-.587 1.569-1.04 1.793 1.86.077.005.134-.045.28-.217.658-1.5-.076-.77.017-.141.041-.058.054-.031.207-.038.059-.008 2.033-1.306-.031.364v.023l.004.09.004.059.009.023.072.252.059.09.023.036.049.031.455.301.438.172.072.009 1.456.072.301-.099.487-.166.248-2.267.938-1.546 1.401-1.352 1.839-2.082-.031-.813.698-2.095 1.393.483 1.64-1.122 2.182-1.475-.136-.563-.995-1.586.459-1.036 1.992.171 1.127-.411 1.956.721 1.095 1.794.095.591 1.852.527 1.479-.158.342.045.122.045.063.051.879.91.78.387.576-.068.054-.455.077-.126.104-.072.784-.343.123-.027.085.009h.014l.404.099 1.074.258.027.013.337.158.595.436 2.277-1.92.179-.081.834-.378.272-.119.012-.003h.051l.103.045.046.05.013.023.027.04.017.031.005.018.004.018.019.077.008.091v.013l.005.006-.01.156.095.406.28.843.023.05.067.143.081.095.01.014.216.144.045.023 1.608.626.87.978.212 2.263-.252 1.103.04.117.091.226v.01l.181.161.193.042.027.008 1.586 1.514.014.018.004.01v.072l-.261.451 1.045.964 1.044 1.42.017.067.377.581 2.052 1.38.735.266.4-.091.393-.117.455.271-.141.063-.455.41-.027.086.072.193.87 1.235.848.739.121.06 1.146.414.675.401 1.181-.234.032-.018.442-.406.008-.009.883-.808.374-.752 1.582 1.105 2.354-1.136.935-1.939 1.007.582 1.253-.941.104-.082 1.014-.802.483.694.293-.248 1.153-1.019-.23-.427.316-.654.581-.703-.889-.695 1.849-3.74.698-1.591 1.199-2.858-.243-.491v-.014l.005-.045.617-.959.266-.947.05-.911.017-1.068.997.239.203.09.189.189.612.907 1.727.293.699-1.009 1.014-3.913 1.843-.356.383-1.303.131-.406.023-.036.044-.071.514-.487.04.067.041.063.032.005.946-.892.316-.699.018-.09.008-.492.276-.473.112-.108.303-.299.152-.278.15-.351.036-.208.027-2.46-.113-1.411 1.33.735 2.217 1.258 2.321 1.301.596-2.614m-114.33 37.941.009.117.064.258.004.003.288.537.189.283.267.262.126.158.162.365.004.01.005.021.058.217.005.014-.005.017-.04.397-.041.122-.008.013-.01.009-.009.013-.117.06-.369.099.017 1.131.258.369.626 1.172.36.883.681.555 1.961.211.365.47-.386 1.289-.295.171v.297l.595.316-.396 1.788-1.551.348-.798 1.789.726-.103 5.251-.379.077-.004.112-.009 3.079-.222.279-.018 4.475-.311-.37-2.33.601-.036 1.676.032-.004.397 1.627-.19.541-.062 3.119-.325 2.257-.221.554-.064 3.033-.364h2.056l1.542-.379 2.127-.076 2.348-.099 1.929-.118 3.601-.346 1.425-.258.198-.035 3.164-.199 1.884-.086.076-.004 5.292-.496.352-.04 2.443-.28.581-.058 2.583-.496 2.077-.23 4.971-.627 1.573-.216 2.254-.32 3.205-.478.513-.077.992-.135 2.158-.311.072-.302.979-.117 1.834-.248-.266.353 3.322-.334 4.615-.559.654-.068 2.295-.361 1.762-.189 3.938-.554.266-.045 3.169-.533 2.073-.347.41-.076 1.289-.229 1.258-.231.815-.144 3.462-.626.626-.122 2.804-.523 1.343-.27 2.803-.537 1.479-.293 1.338-.256 4.755-.938 1.325-.289 2.506-.471 4.27-.966 1.792-.379 1.919-.405 2.571-.55m-44.869 85.178-.17.019-.938.113-.686.031-1.297-.144-1.718-.369-.469-.316-1.206.703-.096 1.393.049.266.172.261.338.442.145.396.008.862-.059.882-.058.893-1.262.244-.073-.015-.229-.18-.207-.297-.109-.288-.324-1.807-2.263.139-.451.032-1.379.099-1.172.086-4.961.341-1.916.132-.533.031-2.82.194-1.465.095-2.921.199-.846.057-2.187.154-1.105.077-5.352.36-1.953-3.524-5.382.657-5.944.691-1.673.166-2.213.225-3.309.317-1.058.08-4.147.37-4.795.455-.249 1.726.145.246 1.122 1.223.353.243.062.023.185.032.374.193.496.307.135.221.04.153.018.212-.112 2.817-.149 1.41-.712.321m90.623-58.971-1.365-.974-5.219-3.728-4.674-3.406-.143-.099-2.736-1.821-2.493.406-4.093.593-2.509.372-2.25.332-.212-.04-.005-.122-.072-1.316-.739-.744-.838-.856-1.565-.69-2.974.271-.406.04-4.186.442-1.109.113-.988.108-2.578.266-1.458.067-2.147 1.127-1.848 1.262-1.356.347-1.1.531-1.001.484-.226 1.027-.956.743-.693 1.258-.172.974.208.347 2.676 1.645.646.45.654.091.117-.059.009-.004.42-.104.378-.05.221.063.108.082-.004.035.351.542 1.117 1.572.397 1.033 1.875 2.312.442.672 1.595.95.067.018.15-.058.049.004.92.464.279.199.663.545.428.807 1.234 1.077 1.042.441.175.163.091.086.505.478.715.834.253.977.7.991 1.003.758 1.799.843.884.486 2.05 3.619.465 1.884 1.127.451.207.077.96.793 1.144 2.321.14.685.056.252.102.515.14.559.05.049.609.235 2.005.378m39.581-85.544.33-.645 3.672-1.249m.694-5.805-2.861.625-.145.034-.379.086-.159.03-.137.027-.037.006-.502.094-.206.041-.586.112-.293.055-.036.004-.689.117-.303.05-.116-.407-.108-.369-.135-.486-.262-.934-.686-2.443-1.104-3.93-.36-1.284-.18-.636-.284-1.009-1.158-4.331 1.536-1.87 1.835.066m2.425-21.25-.569.41-.27.293-.23.473-.049.144-.117.5-.018.176.04.041.018.212-.058.388-.266.627-.384.54.054.067-1.05 1.961.915 1.078.032.076-.005.076-.324.993-.197.273-.146.02-.144-.014-.076.021-.164.385.1.778.238.92.064.117.105.203 1.383.564.73 1.469.937.568.064.036 2.6 1.997-2.114 1.789-.622.906-.734 1.365-.385.55-1.783 1.248-.239.424-.352 1.249m11.231-16.19.091-1.212.258-1.171.04-.488-.015-1.057-3.411-1.02-.225-.068-1.411-.478-3.542-1.239-.767-.75-.423.047-.758.041-.167-.077-1.027-.533-.293-.279-.414-.405-.258-.591-1.532-2.749-1.181-.194-.302-.645-.171-.162-.568-.4-.181-.041-1.153.256-5.806 1.258-.382.081-3.844.789-3.453.69-.361.08-6.021 1.223-1.312.265-4.282.808-.949.188-2.711.499-2.604.506-.415.072-1.339.226-5.156.914-.144.027-1.28.221-.297-1.689-.248-1.43-.055-.342m80.935-25.911-.664.04-.274.018-.063.032-.074.031-.873.645-.667.568-.22.189-.122.127-.509 1.022-.06.136-.233.554-3.111.717-.04.009-.14.031-2.28.51-.276.062-3.271.708-1.623.347-4.358.933-.857.18-2.235.483-.083 3.168-.142 5.688.216.437.09-.022 4.052-.857.415-.094 4.633-1.095 3.466-.821.315-.062.397-.082 2.406-.572.063.189 2.749-.843 1.182.122 1.284 2.465 1.078.6.392.365 1.288 2.042m-115.2 160.29-.323-.934-.119-.257-.082-.147-.521-.573-.082-.023h-.095l-.095-.054-.112-.261-.153-.915.076-.334.117-.342.136-2.749-1.199-2.989-.19-.252.509-2.769-.03-.964 1.172-2.315.026-.037.09-.406-.108-.215-.266-.222-.716-.193-.068-.076-.023-.109.121-.46-.3-1.78-1.034-1.15-.779-1.716-.689-1.534-.866-2.997-.077-.27-1.045-3.772-.194-.695-.604-2.149-.874-3.147-.221-.788-.41-1.474-.721-2.605-.884-3.001-.229-.816-.126-.443-.848-2.997-.406-1.577m-49.226 4.03 6.13-.375.838-.062 3.056-.198 1.618-.114 1.892-.139 2.034-.158.383-.032 4.249-.338.176-.012 1.712-.141 2.241-.324 3.966-.307 4.008-.31.13-.01 3.922-.275.548-.053 4.861-.479.079-.004 4.675-.455 2.708-.244 1.388-.144 1.132-.122 1.027-.14 2.987-.376 1.751-.205.359-.045 1.61-.197 3.123-.384-.039-2.849.85-.748 1.111-.027.395-.325.244-.333.423-2.312.086.03 2.816-1.784.05.005.189.004 1.473-.152.127-.082 1.789-1.416.374-.548-.045-.245 2.868-1.427.399-2.033.466-.118.91-.852.648-.64.181-.131.262-.189.049-.008.155.103.197.189 1.11.645.734-1.343 1.839-1.37 1.537.445 1.212-2.267.108-.311.076-.207.474-.531.514-.352.013-.01.054-.031.064.148.27.086.161-.008h.019l.215-.072-.039-.614.049-2.644m65.876-94.474-.69-2.47-.964-4.71-.546-2.538-1.55-.342-.306-.127-.036-.048-.091-.753.051-.523.174-.956-.334-.649-.157-.284-1.075-2.538-.02-.044-.022-.433v-.42l.005-1.067.378-1.078-.302-1.568.05-.541-.014-.14-.005-.008-.167-.451-.129-.28-.429-.518-.262-.153-.149-.126-.27-.505-.459-2.691-.33-2.114.014-.221m-16.952 86.388 1.074-1.686-1.173-.604-.513-.266-.551.897m-24.838-5.729 1.059 6.612 1.614-1.937 1.834-2.213 1.064.239 1.618-2.227 1.19.473 1.879-.103 1.032-1.767.523.104.117-.014.348-.641.256-.405.068-.077.059-.022.334.009.364.04.361.135.45.326.166.184 2.228 1.23 1.461 2.006.387-.045 2.393.839-.396.626-.041.108-.004.059-.024.162-.012.117.003.01.069.22.063.076.063.045.639.429.019.008.355.023.483-.023.469-.053 2.347 1.176.375.306.451.198.265.515.072.64.005.057-.243 1.124-.257.995m-53.464 11.976.884.027 1.592-.63.099-.064.053-.068.028-.076.018-.086.018-.094.045-.924.004-.027.004-.564.654-.217.189-.041.059-.012.022-.024.056-.045.025-.027.041-.067.013-.063.005-.076.005-.045v-.018l-.014-.09-.258-1.051.127-2.087.226-1.235.031-.18.46-.779.171-.09.158.008.73.398.195.242.247.37.036.1v.676l.329-.086 1.045-.744.024-.108-.24-1.038-.108-.126-.226-.151-.112-.082-.108-.141-.049-.176v-.112l.612-.266-.184-1.081.175-.387.23-.506 1.289-1.641.627-.766.103-.089.09-.028.113.009.253.14.072.077.435.536 1.981-1.699.869-1.357.789-1.001.888-1.64-.108-1.735.397-2.425.026-1.641.104-.405.225-2.767-.878-2.336 1.312-.955m-42.904-7.802.266 2.137.162 1.343.243 1.997.028.238.406 3.399.105.861.304 2.506.236 2.01.319 2.836.067.548.398 3.944.117 1.141.274 2.46.235 2.056.068.585.288 2.804.297 2.579m-30.292 20.128-.509-1.141.483-.018.017-.003.022-.015.006-.009.027-.055.144-2.987.058-1.352.014-.063 1.942-2.579.717-2.064.194-.528.789-1.009.08-.067.099-.181.141-.82.004-.315-.384-.825-.022-.036-.041-.005-.081-.643.059-.081.072-.204.027-.411-.716-1.279-.469-.551-.203-.693.131-1.343.46-2.885-.154-1.685-.329-3.569-.288-3.43-.333-4.265-.015-.184-.283-3.178-.316-3.538-.185-2.015-.153-1.708-.19-2.221-.26-3.084m-36.4 19.819-.639-.046-.407-.329-.982-1.208-.036-.09.032-.262-.023-.085-.771-.582-.203-.127-2.208.006-2.299.162-1.658.108-2.79.189-.744.041-3.723.195-2.695.125-1.78.049-2.114.087-2.348.099-2.109.066-2.326.055-1.563.019-2.755-.014-2.803-.018-1.668-.014-3.813-.04m47.487-78.838 1.018.554 1.812 2.227.829.175.91.189 6.464 1.326.486.099.38.081.613.207.635.311.546.266 2.289.586.185.329 1.577-.167 2.623.329.02.005.224.036.343.166.212.141.139.089.265.379.028.041.013.045-.126.216-.144.203-.063.05-.158.202-.005.009-.013.045.058.113.009.005.344.279.076.018.122.032.009.004.122-.018 2.131.573.171.139.014.01.023.022.27.333.09 2.326.798 3.836.005.009.08.265.041.068.712.753.009.004.234.04.41.064m-277.66 144.1 1.132.085 1.496-.928.468-.658.095-.334.104-.848-.32-.747-.031-.032-.032-.036-.938-.157-.175-.077-.497-.348-.225-.599-.008-.022.635-3.912 1.081-.267 1.298-1.532.42-1.46.306-1.528.059-.419.275-.987.302-.523.969-1.37 1.329-.509.911-.374 1.352-.78.059-.577-.496-.867-.573-.638-.658-.789-.666-2.804-.036-.519-.717-1.126-.568-1.478-.009-.068.018-.18.324-1.434-1.41-2.099-3.823-5.72-.265-.393-.713-1.063-2.068-3.106-2.028-3.019-.117-.172-1.479-2.217-.356-.532-2.758-4.142-3.403-5.093-.645-.978-1.104-1.641-.193-.288-5.184-7.783-4.593-6.856-5.507-8.285-1.294-1.927-1.924-2.88-2.375-3.562-.51-1.933.136-.568.162-.672.482-1.897.437-1.618.92-3.484.198-.735.973-3.65.636-2.412.185-.726.581-2.248 1.158-4.611 1.028-4.002 2.637-10.186-2.66-.672-.365-.094-3.393-.902-1.713-.46-5.219-1.46-7.703-2.294-.514-.158-.293-.095-1.131-.306-1.239-.307-3.124-.883-.239-.068-.405-.121-.983-.357-.689-.143-2.664-.744-2.79-.771-3.552-1.118m94.253-68.633-1.33 6.224-.771 3.583-.626 2.979.266.473 1.735 3.534.013.045.014.031.004.014v.049l-.004.722-.293.743-.248.564-.167 1.046.009.319 1.38 1.907.189.162.149.131.473.23.685.274.149.109.784 1.766.734 1.713.415.775.225.415.172 1.303v.008l.04.109 1.299 1.735.126.036.058.018.387.005.496 1.228.969.209.203-.054.14-.054.23-.045.464.063.158.131.09.09.032.149-.054.284-.312.883-.527 1.213-.789 1.753-2.515 6.274-.315 1.726-.158.874-.009.045.027.032.397.054.356.09.113.05.662 1.046.081.32.37.058 1.767-.811 1.113-.974.793-.455.185.194.874 1.235.05.162.103 1.023-.008.383-.117.212-.023.766.013 1.01 1.411 5.246 1.496 2.082.307-.076.32.252.383.428.172.266.197.618.262 1.122v.099l-.054.099-.036.027-.013 1.609.107.609.249.36.734.821.234.085.185-.103.09-.14.005-.032.108-.482.131-.203.356-.378.608-.144 3.223.802 1.37-.514 2.51.257 1.817.518 1.172.032 1.559-1.79 1.027-.387.433.428.74 1.451.401 1.158.104.307.734.681m65.583-11.101-.059.815-.694 8.596-.392 2.758-.451 5.49-.415 5.03-.044.504-.32 3.705-.379 4.521-.027.325-.509 6.16 5.137.42 4.728.365 1.956.149 6.662.458 1.942.127 2.344.18 3.736.194 3.016.158 3.407.158 1.83.086.672.031.748.037 6.242.262 2.628.094 7.107.208 1.741 1.562 1.324.6 1.028.887.203.09.167.027.157-.008.478-.072.126-.078.266-.242.198-.284 1.087-.401.824.107 1.902-.125.586-.077.893.036.671.081 1.091.929 1.167.334 1.975.738.77.487.104.235.054.216-.036.152-.005.118.028.117.676 1.005 1.821.465-.339-.934-.342-.901-.244-.392-.311-.289-.247-.189.378-1.73.379-1.01.653-2.254.149-.397.027-.089-.361-1.298-.089-.042-.672-.003-.208-.469-.161-3.114 1.36.009m-6.332-70.78-.041.041-.04.189-.01.19.05.27.622 2.032.167.496.379.861-.577 1.783.256.277.055 3.074-.284 1.095-.005.262.203.815.839 3.024 1.135 2.592.302 2.222.158 3.353.045 1.118.013 1.631.374 1.226.109.298-.172 2.803.005.724.383 1.115 1.239 2.984.343 2.704.027.226-.018.261-.022.081-.167.469.122 1.118-.05.563v.027l-.005.014-.04.342-.032.279-.022.117-.009.064-.009.027-.009.018-.014.032-.631.937-.184.185-.347.189-.312.203-.824.662-.014.018-.018.023-.014.014-.031.072-.126.432.036.05.162.207.631.843 1.325 1.469.87.424.297.239.172.396.149.744-.01 3.759-.018 4.476-.008 1.131-.028 4.48-.027 4.489-.018 4.521 3.736.013 1.79.005 3.8-.023h.622l4.412-.04.568-.009 3.84-.055 1.826-.031 2.582-.041 3.006-.068 1.416-.036 4.182-.121.23-.01 4.399-.157.974-.036 3.438-.14 3.264-.139 1.113-.05 3.668-.176m-243.64-1.537 4.773-21.25.996-2.416.27-.451.438-.829.351-1.433.456-.559.013-.023.013-.027.018-.036.005-.005v-.013l.013-.131-.031-.099-.009-.018-.478-.946-.094-.059-.357-.126h-.049l-.086.04-1.122-.455-.135-.229-.018-.185.013-.109.023-.068.311-2.122.113-.226 1.996-2.744.212-.19.063-.027.221-.049.861-.293.491-.528.271-.288.211-.226.302-.522.009-.009-.013-.104-.054-.126-.032-.126-.009-.261.225-.469.285-.262.437-.396 1.347-2.195.306-.645 1.56-2.001.865-.884.217-.247.036-.163-.311-1.631-.059-.248v-.004l-.175-.222-.154-.198-.004-.004-.329-.144-.785-.722-.41-.378-.027-.05-.04-.076-.635-1.979-4.945-1.154-1.077-.261-3.277-.789-.166-.041-8.663-2.077-.253.212-.193.085-.658.19-.32.049-.392-.027-.23-.058-.248-.127-1.352-.185-.51-.031-.509-.032-1.749.216-.937-.089-.861-.09h-1.233l-1.359.166-.288.072-.469.356-1.776-.108-.703-.122-.184-.121-.109-.158-.234-.441-.252-.177-.384-.094-.189.063-.388.185-.964.135-.793.122-.469.144-.194-.257-3.272-1.532-.311-.063-.617-.091-.614-.532-.968-.018-.744-.058-.244-.059-.621-.342-.532.031-.383.198-.253.226-3.2.446-.167.005-.256-.068-.294-.144-2.501-1.541-.239-.181-.459-.482-.176-.225-.009-.316.086-.234.193-.325.235-1.573.067-.212.081-1.226-.252-1.405-.086-.339-1.455-1.784-.424-.176-.46.085-1.392-.058-.068-.023-.378-.59.197-.577-.094-.302-.131-.234-.036-.059-.027-.014-.05-.031-.581-.032m257.59 155.49-3.984.032-.672.004-3.42.032-1.173.004-2.704.014-2.185.005-5.369-.019-2.294-.013-4.065-.04-3.218-.04-3.475-.06-3.169-.059-2.402-.053-2.023-.064-4.66-.144-4.652-.158-.87-.032-4.715-.216-.887-.041-5.557-.229-3.187-.135-1.239-.063-4.99-.248-4.827-.266-.144-.009m146.3 84.368-.572-4.691-.414-3.363-.191-1.489-.522-4.118-.429-3.362-.261-2.528.073-4.323.026-1.054.077-3.503.076-4.561.015-.807.076-3.868.059-3.199.057-2.745.104-4.083.01-.369.067-3.058.041-1.85.036-1.546.108-4.053-1.182-1.248m-29.76 27.849-1.063.041-1.839.075-.266.015-6.549.266-7.063.19-2.839.053-2.69.073-2.713.072-.33.004-3.055.068h-.104l-2.46.054m-94.582-158.32-8.92-.843-.464-.045-6.891-.69-.649-.036-.97-.045-2.167-.234-5.67-.663-1.74-.212-.482-.099-4.296-.527-2.744-.342-3.069-.374-3.367-.456-2.799-.37-1.195-.162-.184-.026-1.677-.307-4.791-.649-2.813-.438-1.018-.049-2.997-.406-.023-.004-1.357-.212-.396-.136-1.122-.229-1.519-.235-.784 4.26-.334 2.461-.992 6.264-.96 6.171-.369 2.366-.6 3.786-1.058 6.482-1.051 6.551-.861 5.409-.671 4.206-.523 3.254 5.214.861 4.336.622.455.068h.01l1.383.198 1.343.189.375.054 4.497.6 1.511.22 7.666 1.032 3.191.384 5.773.697 4.427.521 5.151.625 1.253.149 8.798.901 3.214.311 8.586.727 4.615.378 1.852.143 7.04.515.312.018 5.498.368-.203 3.277-.045.677-.216 3.34-.077 1.176-.284 4.488 6.274.389.852.045 5.543.297.195.014 5.345.256.153.01 5.402.216 4.397.158 1.099.031 3.34.104 2.177.059 2.262.053 3.358.081 1.082.024 4.439.071 4.449.059 1.086.013 3.354.028 2.203.013 2.24.004h2.186l4.399-.017h.311m-193.48-98.246-.055-.892.429-1.182-.055-1.108-.086-.712-.013-.045-.283-1.141.189-.563.329-1.456 1.649-7.337.375-1.65.301-1.338 1.699-7.64.194-.851 2.317-9.961.437-1.898m305.61 172.03 2.077-1.114 1.036-.554 2.141-1.212 2.042-1.686.212-.371.041-.977 2.668-3.29.113-.077.396-.284 1.523-.859.379-.489 2.962-3.56m92.988-92.679-1.261-.505-.35-1.406-.028-.031-1.09-.65-.452-.225-.166-.086-.262-.364-.085-.181-.069-.288-.157-1.758-1.136-2.961-1.842-6.098-1.691-5.377-.135-.433-1.907-5.751-.347-.991m-2.713 4.619-.217.446-.013 3.165.076.215.339.334.414.509.226.28.04.064.234.378-.121 1.122-.104.289v.004l-.045.077-.446.784-.037.058-.053.077-.126.163-.023.035-.289.212-.193-.018-.604.784-.631.397-.624.388-.047.045-.028.022-.302.545-.031.131v.081l.296 1.032.168.226.153.122-.248 5.201-.572 2.429-.347 1.154.447 2.055.193.505-.041 1.127.036.951.303.473.02.077.246 1.379-.587 2.01.041.13.267.573 1.031.829m-7.369 10.867.883 4.904.306 1.785.352 2.064.158.91-.306 2.082-.06.059-.702.717 1.008 1.297m-200.08 83.511 5.567-.089 2.168-.045 2.903-.072 2.771-.068.199-.004 4.542-.135.844-.027 2.501-.086 3.898-.161.307-.019 4.61-.207 2.287-.082.441-.013 2.885-.153 3.514-.199 2.142-.116 3.655-.208.275-.018.406-.013.919 1.298.1.134.067 1.024-.109.297-.072.113-1.127.991-1.593 2.772.823-.054 3.407-.243 2.339-.176m22.82-76.941 2.866-.275 2.84-.293 1.555-.166 2.582-.262 1.253-.134 3.498-.402.91-.098 3.534-.415.279.801 3.854-.59.364-.058 4.544-.744 1.109-.194 2.924-.496m2.493 88.024 2.007-.235 1.292-.162.718-.094 4.023-.586.682-.109 3.889-.612m-67.219-12.639-.698.069m-210.1 59.384 1.961-13.999.626-4.499.766-5.529 1.015-7.306 1.428-10.285.676-4.89 1.853-13.41 1.78-12.826.883-6.256.716-5.101.483-3.498.442-4.493.392-2.831.388-2.371.072-.496.342-2.34.433-3.114.235-1.685.288-2.096 1.794-12.782.604-4.467m323.56 4.179-3.345.716-.942.204-.063.013-3.178.666-2.099.437-2.052.428-2.097.424-2.342.464-.094.019-6.099 1.154-2.361.446-.366.068-4.146.765-1.188.217-4.468.816-.821.148-2.791.492-1.477.252-4.908.82-.955.154-.505-3.092-.113-.69-.3-1.838-.498-3.07-.171-1.005-.342-2.069-.446-2.724-.114-.62-.465-2.889-.017-.104-.752-4.556-.024-.14-.734-4.48-.268-1.636m81.296-17.632 1.015 3.538.28 1.064.143.541.244 3.619m-373.07 9.22-4.34-.676-5.674-.918-.515-.082-.689-.178h-.005l-1.992-.344-2.429-.42-2.745-.464-3.777-.639-.275-.045-3.132-.533-.298-.049-.802-.14-.112-.022-.753-.18-.627-.158-2.438 12.67-2.204 11.257-.523 2.692-.897 4.633-2.145 11.046-.262 1.335-1.036 5.417-1.361 6.937-1.465 7.716-.388 2.01-.405 2.124-.05.259-.41 2.34-.248 1.299-.437 2.267-1.307 1.766-.14.158-.018.012-.045.025-.626-.014-.203-.023-.054-.013-.131-.1-.09-.094-.239-.379-.072-.216-.009-.108-.005-.027-.018-.099-.126-.316-.306-.433-.14-.131-1.312-.387-.594-.122h-.632l-1.154.271-.103.054-.14.126-.009.082-.131 1.262-.279 3.695-.126 2.259.135 1.595.094.756.014.379-.072 1.573-.013.288-.055.257-.094.307-.965 1.613m118.72-87.987-.424 5.025-.667 7.883-.338 3.927-.145 1.729-.184 2.214-.437 5.067m102.11 149.65-.1-2.875 1.285-1.791.008-2.491-.335-2.031.431-.363.045-.112.004-.067-.157-.804-.311-.375-.032-.034v-.005l.126-.451 1.582-2.979.199-.865-.041-4.088-.513.135-.114-.667-.076-.423-.329-1.434-1.01-1.465-1.185-1.245-.55-3.32-1.537-1.717-.351-2.786-.055-2.537-.085-3.89-.045-2.434-.04-1.789-.068-3.259-.077-3.642-.257-.212-.198-.081-1.037-.208-.6.087-.157.019-.054.049-1.037.526-.577-.315-.157-.103-.438-.28-.071-.095-.082-.188-.085-.221-2.79-.803-1.325-.541-1.83-1.465-1.249-1.068-.676-.226-.076-.003-.036.018-.009.004h-.006l-.229.347-.005.018v.023l-.004.013.004.009.041.086v.019l.018.112-.018.13-.058.131-.06.058-.284.185-.084.009-.158.018-.311.041h-.005l-.722.036-.4-.032-1.055-.14-.04-.036-.042-.072v-.009l-.003-.066.032-.091.003-.086-.113-.288-.081-.032-.346-.018-.78.405-.895.467-.917.345-.518-.095-.617-.122-.145.015-.23.017-1.199.1-.541.125-.09.316-.067.311-.005.032-.009.036-.031.099-.027.086-.005.009-.013.017-.1.104-.013.016-.194.083-.221.059-1.591.393-.103-.141-.464-.631v-.004l-.14-.045-.126-.014-.546.104h-.014l-.099-.068-1.095-.735-.009-.031-.009-.062-.009-.159.036-.207-1.068.482-.009.004-.518.087-1.006-.308-.108-.075-.175-.196-.541-1.112-.104.058-1.604 2.782-.05.067-.108.086-.153.049-.171-.022-.149-.05-3.106-1.357-.094-.063-.063-.076v-.005l-.009-.023-.028-.067-.211-.964-.821.221-.383-.267-1.086-.725-.365.46-.559.581-.532.419-.333.099-.127-.012-.941-.429-.118-.109.275-.595.091-.694-.397-.157-.37.09-.013.004h-.23l-.451-.135-.018-.004-.027-.027-.185-.37-.644-1.059-1.65-.518-.406-.091-.207.117-.428.541-.568.51-.009.009-.004-.004-.303-.109-.504-.811-.243-.207-.235-.155-.108-.008-.965.297-.694-.026-.978-.239-.982-.587-.163-.075-.978-.077-.428.008-.198.009-.397-.09-.216-.067-.135-.04-.005-.006v-.004l-.184-1 .009-.28.013-.298v-.013l-.5-.87-.528-.284-.464-.252-.455.815-.004.01-.014.023h-.009l-.081.035-.356-.031-.347-.329-.262-.153-.162-.068-.505-.059-.117-.017-.058.022-.411.519-.41.004h-.09l-.325-.077-.739-.703-.266-.315-.55-.713-1.545-.77.072-2.398.153-3.682.086-1.974.13-3.111.109-2.55.139-3.399.095-2.266.212-5.765-5.58-.249-4.196-.211-1.348-.067-5.535-.316-4.195-.265-1.339-.087-8.622-.599m66.944-119.72-5.991-.059-6.756-.122-.266-.009-6.449-.193-2.529-.09-6.413-.244-1.46-.067-5.567-.271-.112-.004-2.046-.104-.203-.009-.073-.005-1.081-.054-.816-.045-2.614-.144-.919-.05-.523-.031-1.127-.063-1.362-.086-1.293-.076-1.086-.068-.145-.009-.089-.009-8.465-.586-.482-.036-9.424-.748.36-4.295.289-3.34.108-1.29.748-8.806.077-.861.653-7.635.401-5.012.257-3.11.388-4.651" stroke="#221e1f" stroke-linejoin="round" stroke-width=".5">
   <title id="t3141">#State_borders</title>
  </path>
  <path id="separator" d="m154.33 294.72v35.367l23.149 20.935m-176.83-100.03h110.6l43.082 43.725h55.3l34.08 34.724v21.578" stroke="#a9a9a9" stroke-width="1.3"/>
 </g>
</svg>
